<svg xmlns="http://www.w3.org/2000/svg" width="1200" height="630" viewBox="0 0 1200 630" role="img" aria-labelledby="title desc">
  <title id="title">Kangning Cui academic homepage share card</title>
  <desc id="desc">Open Graph card for Kangning Cui with research areas and institutional affiliations.</desc>
  <defs>
    <linearGradient id="paper" x1="0" x2="1" y1="0" y2="1">
      <stop offset="0" stop-color="#fbfaf6"/>
      <stop offset="0.58" stop-color="#f4efe3"/>
      <stop offset="1" stop-color="#ece4d3"/>
    </linearGradient>
    <linearGradient id="ink" x1="0" x2="1" y1="0" y2="0">
      <stop offset="0" stop-color="#111111"/>
      <stop offset="1" stop-color="#2a2118"/>
    </linearGradient>
    <filter id="softShadow" x="-20%" y="-20%" width="140%" height="140%">
      <feDropShadow dx="0" dy="22" stdDeviation="22" flood-color="#1f2933" flood-opacity="0.16"/>
    </filter>
  </defs>

  <rect width="1200" height="630" fill="url(#paper)"/>
  <circle cx="1048" cy="92" r="198" fill="#b88a36" opacity="0.10"/>
  <circle cx="88" cy="556" r="220" fill="#111111" opacity="0.045"/>
  <path d="M0 520 C240 462 406 548 640 490 C832 442 930 340 1200 390 L1200 630 L0 630 Z" fill="#111111" opacity="0.045"/>

  <rect x="76" y="70" width="1048" height="490" rx="34" fill="#fffdf8" opacity="0.92" filter="url(#softShadow)"/>
  <rect x="76" y="70" width="1048" height="490" rx="34" fill="none" stroke="#c9a15b" stroke-width="2" opacity="0.42"/>

  <line x1="132" y1="138" x2="324" y2="138" stroke="#b88a36" stroke-width="5" stroke-linecap="round"/>
  <text x="132" y="190" fill="#6f5423" font-family="Georgia, 'Times New Roman', serif" font-size="28" letter-spacing="2.8">ACADEMIC HOMEPAGE</text>
  <text x="132" y="286" fill="url(#ink)" font-family="Georgia, 'Times New Roman', serif" font-size="76" font-weight="700" letter-spacing="-1.5">Kangning Cui</text>
  <text x="136" y="338" fill="#2f353a" font-family="Avenir Next, Helvetica, Arial, sans-serif" font-size="27" font-weight="500">Efficient machine learning for scientific and real-world sensing</text>

  <g font-family="Avenir Next, Helvetica, Arial, sans-serif" font-size="22" font-weight="600" fill="#222222">
    <text x="136" y="414">Computer Vision</text>
    <circle cx="330" cy="407" r="4" fill="#b88a36"/>
    <text x="350" y="414">Signal Processing</text>
    <circle cx="548" cy="407" r="4" fill="#b88a36"/>
    <text x="568" y="414">LLM</text>
    <circle cx="640" cy="407" r="4" fill="#b88a36"/>
    <text x="660" y="414">Geoscience</text>
    <circle cx="810" cy="407" r="4" fill="#b88a36"/>
    <text x="830" y="414">Healthcare</text>
  </g>

  <g font-family="Avenir Next, Helvetica, Arial, sans-serif" font-size="23" fill="#4c5358">
    <text x="136" y="486">Wake Forest University</text>
    <text x="136" y="522">Assistant Professor, City University of Hong Kong (Dongguan)</text>
  </g>

  <g transform="translate(940 140)">
    <rect x="0" y="0" width="118" height="118" rx="26" fill="#111111"/>
    <text x="59" y="73" text-anchor="middle" fill="#d5aa5d" font-family="Georgia, 'Times New Roman', serif" font-size="42" font-weight="700">KC</text>
  </g>
</svg>
